<svg width="20" height="20" viewBox="0 0 20 20" fill="none" xmlns="http://www.w3.org/2000/svg">
<path d="M13 2.5C13 3.88071 11.8807 5 10.5 5C9.11929 5 8 3.88071 8 2.5C8 1.11929 9.11929 0 10.5 0C11.8807 0 13 1.11929 13 2.5Z" fill="#003D96"/>
<path d="M13 9.5C13 10.8807 11.8807 12 10.5 12C9.11929 12 8 10.8807 8 9.5C8 8.11929 9.11929 7 10.5 7C11.8807 7 13 8.11929 13 9.5Z" fill="#003D96"/>
<path d="M13 16.5C13 17.8807 11.8807 19 10.5 19C9.11929 19 8 17.8807 8 16.5C8 15.1193 9.11929 14 10.5 14C11.8807 14 13 15.1193 13 16.5Z" fill="#003D96"/>
</svg>
